<svg width="166" height="132" xmlns="http://www.w3.org/2000/svg" class="fl-svgdocument" data-bbox="168.17405494491715 94.05776099629509 169.49243962493603 324.04723884504125">
 <g>
  <title>Layer 1</title>
  <g id="_FiZwUgVvhEjJoUfEF-Fjc" data-uid="o_f0f91ajmi_5" stroke="null">
   <path transform="rotate(24.932 119.359 52.3354)" id="_Z5ffKZqkoY7lAXrrQIYMq" fill-rule="evenodd" clip-rule="evenodd" d="m140.46421,35.48426c-2.56543,3.37638 -5.01171,6.60557 -7.4661,9.83011c-6.97806,9.1694 -13.96313,18.324 -20.92423,27.53548c-0.36371,0.48262 -0.68645,1.39379 -0.74492,2.16259c-13.65391,-3.11163 -13.43767,-3.8391 -12.88967,-4.47462c11.5243,-13.4288 23.0389,-26.88165 34.53924,-40.36733c0.54043,-0.6337 0.9305,-0.67766 1.49751,-0.14105c1.9229,1.82041 3.88027,3.54357 5.98817,5.45482z" fill="#2478b3" data-uid="o_f0f91ajmi_6" stroke="null"/>
   <path transform="rotate(24.932 103.83 36.1484)" id="_aLCW-HKRwL4l9UVo7s08D" fill-rule="evenodd" clip-rule="evenodd" d="m133.01999,15.26143c-0.96007,1.03389 -1.77358,1.92525 -2.59557,2.78746c-13.94604,14.69934 -27.88726,29.40793 -41.84859,44.06935c-14.53788,-0.98934 -14.30623,-1.5785 -13.75158,-2.11331c17.1973,-16.44475 34.38014,-32.91722 51.55905,-49.41301c0.50997,-0.48599 0.88721,-0.58672 1.4269,-0.0679c1.66704,1.59695 3.37546,3.08002 5.20978,4.73741l0.00001,0z" fill="#1a4f91" data-uid="o_f0f91ajmi_7" stroke="null"/>
   <path transform="rotate(24.932 134.635 69.2332)" id="_a6ZzOV3Ld-LB6c5FGwppS" fill-rule="evenodd" clip-rule="evenodd" d="m118.93102,83.31972c7.35417,-10.93763 14.68624,-21.92195 21.99932,-32.93984c0.5631,-0.85219 0.94627,-0.93009 1.59523,-0.31614c2.5402,2.39633 5.11752,4.67633 7.81394,7.12189c-0.273,0.50549 -0.49559,0.93306 -0.72952,1.34603c-5.29846,9.23592 -10.60401,18.45968 -15.87951,27.72822c-0.37925,0.66955 -0.6916,1.63498 -0.79955,2.54453l-13.99991,-5.48469z" fill="#3497d1" data-uid="o_f0f91ajmi_8" stroke="null"/>
   <path transform="rotate(24.932 90.4364 22.2762)" id="_tdL29C8Q2gtIGeTcKzf5w" fill-rule="evenodd" clip-rule="evenodd" d="m127.03601,-1.92182c-2.94053,2.58935 -5.6799,5.00925 -8.42352,7.42669c-17.14149,15.07291 -34.28215,30.15601 -51.43412,45.20024c-13.96188,-0.79458 -13.5614,-1.6009 -13.24017,-1.86496c0.32123,-0.26406 10.76168,-8.75245 16.14479,-13.12575c16.97357,-13.78165 33.94515,-27.56283 50.90005,-41.39892c0.77219,-0.62849 1.34282,-0.6473 2.06235,0.0849c1.23506,1.25334 2.51898,2.33556 3.99062,3.6778z" fill="#103869" data-uid="o_f0f91ajmi_9" stroke="null"/>
   <path transform="rotate(24.932 152.406 92.9872)" id="_dHaf39lZH041-NOo0S07M" fill-rule="evenodd" clip-rule="evenodd" d="m163.4634,87.5352c-1.96454,5.08646 -3.88939,9.86539 -5.67409,14.79443c-0.65349,1.80259 -1.07727,3.90713 -1.42397,5.96202c-15.39226,-6.0835 -15.22312,-6.86562 -14.95001,-7.44391c3.58858,-7.52346 7.19813,-15.01381 10.80486,-22.51389c0.10035,-0.21117 0.2214,-0.39263 0.37467,-0.65113c3.60592,3.26742 7.19651,6.52119 10.86854,9.85249l0,-0.00001z" fill="#34add1" data-uid="o_f0f91ajmi_10" stroke="null"/>
   <path transform="rotate(24.932 73.4392 23.2717)" id="_01DrFiPQnOedKPX3sC-GU" fill-rule="evenodd" clip-rule="evenodd" d="m39.89991,65.77847c-2.93902,-8.63923 -5.87207,-17.27988 -8.86001,-26.07027c2.44143,-1.77328 4.79725,-3.50179 7.15729,-5.2036c24.661,-17.79184 49.32455,-35.57736 73.97878,-53.40224c0.64748,-0.46694 1.14962,-0.47975 1.7292,0.15428c0.56199,0.61744 1.17276,1.11231 1.93324,1.82431c-2.46004,1.86784 -4.73603,3.60496 -7.01965,5.32313c-22.99483,17.35128 -45.99165,34.70304 -68.99611,52.03584c-0.56187,0.42218 -0.77232,0.89883 -0.72424,1.97895c0.3493,7.22163 0.65625,14.44647 0.97371,21.67573c0.0239,0.53836 0.01966,1.07999 0.02538,1.61924c-0.06909,0.02347 -0.13221,0.04552 -0.19759,0.06464l0,-0.00001z" fill="#103469" data-uid="o_f0f91ajmi_11" stroke="null"/>
  </g>
  <path id="_bt036DyTEQ5yB-lJ75Tqu" fill="#3a3a3a" text="Vue" text-anchor="middle" font-size="100" letter-spacing="0" side="left" offset="0.5" dx="0" dy="0" space="preserve" font-family="Montserrat" font-scale="contain" x="0" y="0" font-weight="700" data-uid="o_f0f91ajmi_13" d="m34.80945,58.71769l9.02875,0l-16.992,39.25546l-8.97268,0l-16.93593,-39.25546l9.81386,0l11.94487,28.03961l12.11311,-28.03961l0.00002,0zm32.30163,9.08483l8.74836,0l0,30.17062l-8.29972,0l0,-3.58907q-1.73846,1.96277 -4.14986,3.00024q-2.41141,1.03747 -5.21537,1.03747l0,0q-5.9444,0 -9.42131,-3.42083q-3.47691,-3.42083 -3.47691,-10.15034l0,0l0,-17.04808l8.74836,0l0,15.75826q0,7.2903 6.11264,7.2903l0,0q3.14044,0 5.04713,-2.04689q1.90669,-2.04689 1.90669,-6.0846l0,0l0,-14.91707l-0.00001,-0.00001zm46.4336,15.19747q0,0.16824 -0.16824,2.35533l0,0l-22.82424,0q0.61687,2.80396 2.91612,4.43026q2.29925,1.6263 5.72008,1.6263l0,0q2.35533,0 4.1779,-0.70099q1.82257,-0.70099 3.39279,-2.21513l0,0l4.65458,5.04713q-4.26202,4.87889 -12.44959,4.87889l0,0q-5.10321,0 -9.02875,-1.99081q-3.92555,-1.99081 -6.05656,-5.5238q-2.13101,-3.53299 -2.13101,-8.01933l0,0q0,-4.43026 2.10297,-7.99129q2.10297,-3.56103 5.77616,-5.55184q3.67319,-1.99081 8.21561,-1.99081l0,0q4.43026,0 8.01933,1.90669q3.58907,1.90669 5.63596,5.46772q2.04689,3.56103 2.04689,8.27169l0,0l0,-0.00001zm-15.6461,-9.02875q-2.9722,0 -4.99105,1.68238q-2.01885,1.68238 -2.46749,4.5985l0,0l14.86099,0q-0.44863,-2.86004 -2.46749,-4.57046q-2.01885,-1.71042 -4.93497,-1.71042l0,0l0.00001,0z" stroke="null"/>
  <path id="_vDM6X19Yd-qhm61CJl4bW" fill="#3a3a3a" text="Curseur" text-anchor="middle" font-size="100" letter-spacing="0" side="left" offset="0.5" dx="0" dy="0" space="preserve" font-family="Montserrat" font-scale="contain" x="0" y="0" font-weight="700" data-uid="o_f0f91ajmi_14" d="m16.12606,131.29049q-4.35392,0 -7.87368,-1.89212q-3.51976,-1.89212 -5.53395,-5.24912q-2.0142,-3.35699 -2.0142,-7.58884l0,0q0,-4.23185 2.0142,-7.58884q2.0142,-3.35699 5.53395,-5.24912q3.51976,-1.89212 7.91437,-1.89212l0,0q3.70287,0 6.69364,1.30211q2.99078,1.30211 5.02532,3.74356l0,0l-4.23185,3.90632q-2.88905,-3.33665 -7.16159,-3.33665l0,0q-2.6449,0 -4.72014,1.15969q-2.07523,1.15969 -3.23492,3.23492q-1.15969,2.07523 -1.15969,4.72014l0,0q0,2.6449 1.15969,4.72014q1.15969,2.07523 3.23492,3.23492q2.07523,1.15969 4.72014,1.15969l0,0q4.27254,0 7.16159,-3.37734l0,0l4.23185,3.90632q-2.03454,2.48214 -5.04566,3.78425q-3.01112,1.30211 -6.71399,1.30211l0,0l0,-0.00002zm30.88434,-22.37996l6.34777,0l0,21.89167l-6.02224,0l0,-2.60421q-1.26142,1.42418 -3.01112,2.17696q-1.74971,0.75278 -3.78425,0.75278l0,0q-4.31323,0 -6.83606,-2.48214q-2.52283,-2.48214 -2.52283,-7.36504l0,0l0,-12.37001l6.34777,0l0,11.43412q0,5.28981 4.4353,5.28981l0,0q2.27869,0 3.66217,-1.48522q1.38349,-1.48522 1.38349,-4.41496l0,0l0,-10.82376zm18.31087,2.88905q1.13934,-1.58694 3.07216,-2.40076q1.93281,-0.81382 4.45565,-0.81382l0,0l0,5.85948q-1.05796,-0.08138 -1.42418,-0.08138l0,0q-2.72629,0 -4.27254,1.52591q-1.54625,1.52591 -1.54625,4.57772l0,0l0,10.33547l-6.34777,0l0,-21.89167l6.06293,0l0,2.88905zm18.75847,19.32814q-2.72629,0 -5.3305,-0.6714q-2.60421,-0.6714 -4.15046,-1.68867l0,0l2.11592,-4.55737q1.46487,0.93589 3.5401,1.52591q2.07523,0.59002 4.06908,0.59002l0,0q4.02839,0 4.02839,-1.99385l0,0q0,-0.93589 -1.09865,-1.3428q-1.09865,-0.40691 -3.37734,-0.69174l0,0q-2.68559,-0.40691 -4.4353,-0.93589q-1.74971,-0.52898 -3.03147,-1.87178q-1.28176,-1.3428 -1.28176,-3.82494l0,0q0,-2.07523 1.20038,-3.68252q1.20038,-1.60729 3.49941,-2.50249q2.29903,-0.8952 5.43223,-0.8952l0,0q2.31938,0 4.61841,0.50864q2.29903,0.50864 3.80459,1.40383l0,0l-2.11592,4.51668q-2.88905,-1.62763 -6.30708,-1.62763l0,0q-2.03454,0 -3.05181,0.56967q-1.01727,0.56967 -1.01727,1.46487l0,0q0,1.01727 1.09865,1.42418q1.09865,0.40691 3.49941,0.77313l0,0q2.68559,0.4476 4.39461,0.95623q1.70901,0.50864 2.97043,1.85143q1.26142,1.3428 1.26142,3.74356l0,0q0,2.03454 -1.22072,3.62148q-1.22072,1.58694 -3.56045,2.4618q-2.33972,0.87485 -5.5543,0.87485l0,0zm35.68586,-11.18998q0,0.12207 -0.12207,1.70901l0,0l-16.56117,0q0.4476,2.03454 2.11592,3.21458q1.66832,1.18003 4.15046,1.18003l0,0q1.70901,0 3.03147,-0.50864q1.32245,-0.50864 2.4618,-1.60729l0,0l3.37734,3.66217q-3.0925,3.5401 -9.03336,3.5401l0,0q-3.70287,0 -6.55122,-1.44452q-2.84836,-1.44452 -4.39461,-4.00805q-1.54625,-2.56352 -1.54625,-5.81879l0,0q0,-3.21458 1.52591,-5.79844q1.52591,-2.58387 4.19116,-4.02839q2.66525,-1.44452 5.96121,-1.44452l0,0q3.21458,0 5.81879,1.38349q2.60421,1.38349 4.08943,3.96736q1.48522,2.58387 1.48522,6.0019l0,0l-0.00003,0zm-11.35274,-6.55122q-2.15661,0 -3.62148,1.22072q-1.46487,1.22072 -1.7904,3.33665l0,0l10.78307,0q-0.32553,-2.07523 -1.7904,-3.3163q-1.46487,-1.24107 -3.58079,-1.24107l0,0zm31.29125,-4.47599l6.34777,0l0,21.89167l-6.02224,0l0,-2.60421q-1.26142,1.42418 -3.01112,2.17696q-1.74971,0.75278 -3.78425,0.75278l0,0q-4.31323,0 -6.83606,-2.48214q-2.52283,-2.48214 -2.52283,-7.36504l0,0l0,-12.37001l6.34777,0l0,11.43412q0,5.28981 4.4353,5.28981l0,0q2.27869,0 3.66217,-1.48522q1.38349,-1.48522 1.38349,-4.41496l0,0l0,-10.82376zm18.31087,2.88905q1.13934,-1.58694 3.07216,-2.40076q1.93281,-0.81382 4.45565,-0.81382l0,0l0,5.85948q-1.05796,-0.08138 -1.42418,-0.08138l0,0q-2.72629,0 -4.27254,1.52591q-1.54625,1.52591 -1.54625,4.57772l0,0l0,10.33547l-6.34777,0l0,-21.89167l6.06293,0l0,2.88905z"/>
 </g>

</svg>